<?xml version="1.0" standalone="no"?>
<!DOCTYPE svg PUBLIC "-//W3C//DTD SVG 20010904//EN"
 "http://www.w3.org/TR/2001/REC-SVG-20010904/DTD/svg10.dtd">
<svg version="1.0" xmlns="http://www.w3.org/2000/svg"
 width="512.000000pt" height="512.000000pt" viewBox="0 0 512.000000 512.000000"
 preserveAspectRatio="xMidYMid meet">
<metadata>
Created by potrace 1.14, written by Peter Selinger 2001-2017
</metadata>
<g transform="translate(0.000000,512.000000) scale(0.100000,-0.100000)"
fill="#000000" stroke="none">
<path d="M1835 4881 c-91 -27 -144 -58 -211 -125 -127 -128 -172 -314 -115
-482 16 -48 16 -54 2 -54 -9 -1 -197 -1 -419 -2 -369 -1 -405 -3 -425 -19
l-22 -17 -2 -1574 c-1 -865 -2 -1578 -3 -1585 0 -10 -70 -12 -297 -12 l-298 0
-24 -28 c-22 -25 -23 -32 -17 -107 23 -289 218 -528 511 -627 l70 -24 1940 -2
c1712 -2 1949 -1 2020 13 44 9 84 20 89 25 6 5 17 9 26 9 22 0 106 46 166 90
139 104 228 238 273 410 19 73 20 124 20 1736 1 1625 1 1662 -18 1685 l-19 24
-313 1 -312 2 -24 -24 c-12 -13 -23 -29 -23 -37 0 -11 -20 -13 -97 -12 -117 2
-113 1 -113 19 0 8 -11 23 -25 34 -24 19 -47 20 -900 20 -482 0 -878 2 -880 4
-3 2 5 28 16 57 23 62 28 180 10 255 -40 167 -177 306 -346 350 -73 19 -171
18 -240 -3z"/>
</g>
</svg>
